<svg xmlns="http://www.w3.org/2000/svg" xmlns:xlink="http://www.w3.org/1999/xlink" version="1.1" x="0px" y="0px" viewBox="0 0 48 60" enable-background="new 0 0 48 48" xml:space="preserve"><g><path d="M47,20.507H1c-0.552,0-1-0.448-1-1s0.448-1,1-1h46c0.553,0,1,0.448,1,1S47.553,20.507,47,20.507z"/><path d="M39.909,40.493H21.064c-3.14,0-5.694-2.554-5.694-5.693V19.771c0-0.085,0.005-0.17,0.01-0.256   c0.034-0.526,0.475-1.008,1.002-1.008h28.205c0.526,0,0.963,0.408,0.998,0.934c0.01,0.143,0.016,0.237,0.016,0.331V34.8   C45.602,37.939,43.048,40.493,39.909,40.493z M17.37,20.507V34.8c0,2.036,1.657,3.693,3.694,3.693h18.845   c2.036,0,3.692-1.657,3.692-3.693V20.507H17.37z"/><path d="M36.174,16.483c-0.553,0-1-0.448-1-1v-4.687c0-0.552,0.447-1,1-1s1,0.448,1,1v4.687   C37.174,16.035,36.727,16.483,36.174,16.483z"/><path d="M30.486,16.483c-0.553,0-1-0.448-1-1V8.507c0-0.552,0.447-1,1-1s1,0.448,1,1v6.976   C31.486,16.035,31.039,16.483,30.486,16.483z"/><path d="M24.798,16.483c-0.552,0-1-0.448-1-1v-4.687c0-0.552,0.448-1,1-1c0.553,0,1,0.448,1,1v4.687   C25.798,16.035,25.351,16.483,24.798,16.483z"/></g><text x="0" y="63" fill="#000000" font-size="5px" font-weight="bold" font-family="'Helvetica Neue', Helvetica, Arial-Unicode, Arial, Sans-serif">Created by Creative Stall</text><text x="0" y="68" fill="#000000" font-size="5px" font-weight="bold" font-family="'Helvetica Neue', Helvetica, Arial-Unicode, Arial, Sans-serif">from the Noun Project</text></svg>