<svg xmlns="http://www.w3.org/2000/svg" xmlns:xlink="http://www.w3.org/1999/xlink" version="1.1" x="0px" y="0px" viewBox="0 0 90 112.5" enable-background="new 0 0 90 90" xml:space="preserve"><g><path d="M61,17.3c-1.6-0.8-3.1-1.5-4.5-2.1c-3.5-1.8-6.7-2.6-9.8-2.6c-6.1,0-10.4,3.5-13.1,6.2l-2.2,2.2L30,22.4l-2.2,2.2l-3.4,3.4   l-3.7,3.7c-6.9,6.9-8,14-3.6,22.9c0.7,1.4,1.4,2.9,2.1,4.5c4,8.6,8.2,17.6,15.1,17.6c0.2,0,0.4,0,0.6,0C42,76,44,66.9,45.8,58.9   c0.3-1.3,0.5-2.5,0.8-3.6c0.5-1.9,1.4-3.1,4-5.6l0.4-0.4l0.2-0.2l0.3-0.3l0.3-0.3c2.6-2.6,3.7-3.5,5.6-4c1.1-0.3,2.3-0.5,3.6-0.8   C69,42,78,40,78.6,32.9C79.1,25.8,69.9,21.4,61,17.3z M74.5,32.6c-0.4,5-11.6,6.5-18.2,8.1c-2.9,0.7-4.7,2.3-7.4,5   c-0.2,0.2-0.4,0.4-0.6,0.6c-0.2,0.2-0.4,0.4-0.6,0.6c-2.7,2.7-4.3,4.5-5,7.4c-1.7,6.6-3.1,17.8-8.1,18.2c-0.1,0-0.2,0-0.3,0   c-5.3,0-9.7-12-13.7-19.9c-4-8-2.3-13.1,2.8-18.3c1-1,2.2-2.2,3.7-3.7c1.5-1.5,3.3-3.3,5.5-5.5c1.5-1.5,2.7-2.7,3.7-3.7   c3.2-3.2,6.4-5,10.2-5c2.4,0,5,0.7,8,2.2C62.6,22.6,74.9,27.2,74.5,32.6z M44.5,34.5h4v-4h-4V34.5z M44.5,28.5h4v-4h-4V28.5z    M50.5,28.5h4v-4h-4V28.5z M50.5,34.5h4v-4h-4V34.5z M35.2,46.5l1.5-1.5c0.7-0.8,0.7-2,0-2.7c-0.7-0.8-2-0.8-2.7,0l-1.5,1.5   L31,42.3c-0.7-0.8-2-0.8-2.7,0c-0.7,0.7-0.7,2,0,2.7l1.5,1.5L28.2,48c-0.7,0.7-0.7,2,0,2.7c0.7,0.7,2,0.7,2.7,0l1.5-1.5l1.6,1.6   c0.7,0.8,2,0.8,2.7,0s0.7-2,0-2.7L35.2,46.5z"/></g><text x="0" y="105" fill="#000000" font-size="5px" font-weight="bold" font-family="'Helvetica Neue', Helvetica, Arial-Unicode, Arial, Sans-serif">Created by Joseph Augustine</text><text x="0" y="110" fill="#000000" font-size="5px" font-weight="bold" font-family="'Helvetica Neue', Helvetica, Arial-Unicode, Arial, Sans-serif">from the Noun Project</text></svg>