<svg xmlns="http://www.w3.org/2000/svg" xmlns:xlink="http://www.w3.org/1999/xlink" version="1.1" x="0px" y="0px" viewBox="0 0 64 80" enable-background="new 0 0 64 64" xml:space="preserve"><g><path d="M19.33,60.77c-6.431,0-11.562-2.181-14.835-6.309c-7.89-9.942-1.936-28.261,13.271-40.835   c8.513-7.037,18.394-11.073,27.11-11.073c6.431,0,11.561,2.181,14.834,6.308c7.89,9.943,1.938,28.263-13.27,40.837   C37.928,56.734,28.046,60.77,19.33,60.77z M44.876,4.553c-8.259,0-17.676,3.869-25.836,10.614   C4.666,27.052-1.156,44.122,6.061,53.219c2.881,3.632,7.47,5.551,13.269,5.551c8.259,0,17.676-3.868,25.836-10.613   C59.54,36.271,65.361,19.2,58.144,10.104C55.263,6.472,50.675,4.553,44.876,4.553z"/><path d="M25.422,59.893l-2-0.02c0.199-20.317-19.838-25.757-20.041-25.81l0.503-1.936C4.102,32.184,25.636,38.03,25.422,59.893z"/><path d="M59.808,31.61c-0.218-0.057-21.752-5.904-21.536-27.767l2,0.02c-0.2,20.281,19.213,25.595,20.039,25.812L59.808,31.61z"/><rect x="30.962" y="19.197" transform="matrix(0.649 0.7608 -0.7608 0.649 35.0219 -13.3352)" width="2" height="24.177"/><rect x="22.494" y="35.113" transform="matrix(0.6906 0.7232 -0.7232 0.6906 34.3695 -8.1127)" width="8.345" height="2"/><rect x="27.79" y="30.286" transform="matrix(0.6908 0.723 -0.723 0.6908 32.5042 -13.4382)" width="8.348" height="2"/><rect x="32.741" y="26.623" transform="matrix(0.6904 0.7234 -0.7234 0.6904 31.4109 -18.1528)" width="8.347" height="2"/></g><text x="0" y="79" fill="#000000" font-size="5px" font-weight="bold" font-family="'Helvetica Neue', Helvetica, Arial-Unicode, Arial, Sans-serif">Created by Creative Stall</text><text x="0" y="84" fill="#000000" font-size="5px" font-weight="bold" font-family="'Helvetica Neue', Helvetica, Arial-Unicode, Arial, Sans-serif">from the Noun Project</text></svg>